<?xml version="1.0" encoding="UTF-8"?>
<!DOCTYPE svg PUBLIC "-//W3C//DTD SVG 1.1//EN" "http://www.w3.org/Graphics/SVG/1.1/DTD/svg11.dtd">
<!-- Creator: CorelDRAW -->
<svg xmlns="http://www.w3.org/2000/svg" xml:space="preserve" width="360mm" height="240mm" version="1.1" style="shape-rendering:geometricPrecision; text-rendering:geometricPrecision; image-rendering:optimizeQuality; fill-rule:evenodd; clip-rule:evenodd"
viewBox="0 0 36000 24000"
 xmlns:xlink="http://www.w3.org/1999/xlink"
 xmlns:xodm="http://www.corel.com/coreldraw/odm/2003">
 <defs>
  <style type="text/css">
   <![CDATA[
    .str0 {stroke:black;stroke-width:26.46;stroke-miterlimit:22.9256}
    .fil0 {fill:white}
   ]]>
  </style>
 </defs>
 <g id="Layer_x0020_1">
  <metadata id="CorelCorpID_0Corel-Layer"/>
  <path class="fil0 str0" d="M19154.08 10234.36l2549.96 1.84c-2.37,60.08 -295.03,536.77 -336.86,611.86l-1773.18 3090.78c-64.94,110.56 -106.79,183.58 -169.67,299.86 -110.56,204.41 -513.78,849.57 -524.79,947.16l3973.47 23.51c278.88,3.62 517.61,-135.12 702.88,-247.73 536.83,-326.3 689.79,-1134.26 636.38,-1188.51 -43.8,-44.48 -2367.97,-16.52 -2518.49,-16.65l-277.55 -0.55c9.62,-112.75 101.73,-215.12 159.3,-318.54l2291.24 -3951.32c59.89,-101.22 331.01,-543.09 336.56,-636.2 -1233.65,14.42 -2553.97,1.84 -3797.54,0.08 -404.03,-1.05 -923.08,203.85 -1136.44,427.54 -127.2,133.33 -215.26,304.01 -279.61,502.2 -165.11,508.55 -138.02,454.47 164.34,454.67z"/>
  <path class="fil0 str0" d="M14098.74 16135.04c24,-130.23 14.98,-1343.46 16.48,-1584.53 1.22,-200.76 -22.43,-1525.08 19.01,-1588.57 34.41,-32.27 -20.92,-4.22 36.12,-18.53l394.11 -4.31c151.18,-0.15 302.37,-0.15 453.53,-0.15 308.4,0 616.77,0.39 925.18,0.66 190.56,0.18 1832.29,-37.02 1838.36,24.69 0.75,7.58 4.75,10.33 5.65,13.97l8.89 101.96c-8.4,546.37 -33.55,1926.87 -9.02,2292.34 47.87,-24.83 30.21,-1.09 88.56,-104.24l201.36 -343.48c83.58,-150.99 180.26,-299.94 272.22,-455.09 190.03,-320.64 357.47,-607.04 545.83,-922.72 322.95,-541.15 237.48,-363.68 242.67,-1209.71 2.98,-485.73 20.98,-994.26 6.41,-1477.31l-1335.21 -3.6 -3.37 727.69c-187.78,20.42 -1552.81,3.6 -1862.35,3.6 -238.6,0 -1764.21,35.53 -1846.42,-15.68 -33.19,-32.44 -8.36,-190.48 0.73,-232.24l44.93 -816.59c-6.23,-619.71 -113.71,-1296.28 -582.73,-1697.72 -126.54,-108.33 -586.53,-413.24 -742.82,-377.46 -23.18,735.36 -10.02,1499.89 -13.43,2238.51l-19.05 3374.68c-5.18,394.17 -57.63,668.98 46.22,1060.67 87.63,330.54 213.64,497.3 447.61,677.52 159.65,122.96 589.84,338.57 820.53,335.64z"/>
  <path class="fil0 str0" d="M18092.05 3804.6c53.83,36.12 345.86,319.57 390.82,331.5 79.55,-63.37 738.42,-1461.94 834.48,-1548.93 42.06,16.77 29.87,8.38 55.94,44.46 8.81,12.19 19.67,41.24 29.01,61.85 18.88,41.68 39.79,78.96 59.93,120.1l827.71 1713.29c158.13,322.55 328.34,653.22 475.21,976.41l356.83 730.72c42.62,85.53 99.76,173.76 106.1,266.09 -507.45,19.77 -1054.03,0.17 -1566.05,0.4 -971.07,0.48 -633.57,-97.23 -995.09,344.19 -76.88,93.87 -78.29,65.63 -46.41,95.03 59.82,50.26 292.64,16.77 388.43,17.72 142.89,1.39 291.14,7.73 421.56,16.09 520.25,33.34 1191.03,-16.95 1718.52,10.37 171.26,8.87 690.97,41.74 844.6,11.29l-1489.82 -3101.6c-57.9,-120.56 -107.22,-212.97 -165.93,-341.89l-502.35 -1037.97c-62.01,-122.04 -100.62,-222.17 -166.14,-344.34 -55.28,-103.12 -275.95,-619.98 -352.05,-687.24 -66.29,43.09 -553.5,1000.47 -628.94,1135.35 -106.83,190.97 -202.72,377.55 -303.83,571.82 -78.29,150.39 -291.71,494.36 -292.53,615.29z"/>
  <path class="fil0 str0" d="M17203.56 6959.23c-23.23,-82.51 -162.65,-230.46 -233.12,-513.44 -136.06,-546.43 538.72,-856.14 662.15,-1402.93 11.49,-50.87 15.13,-117.35 33.94,-156.86 50.74,1.69 42.38,-11.72 100.34,39.81 3.92,3.49 14.87,14.59 18.83,18.16 39.28,35.68 59.12,52.99 94.34,86.69 63.55,60.81 126.82,133.17 181.05,199.46 133.64,163.35 202.72,290.71 229.54,539.23 12.54,116 57.64,178.54 43.71,308.06 -38.25,355.7 -225.87,749.17 -248.31,887.22 169.76,-17.04 610.99,-472.71 680.84,-728.17 145.07,-530.47 188.18,-674.19 2.91,-1188.46 -103.64,-287.58 -699.95,-992.8 -943.22,-1179.49 -110.88,-85.08 -344.12,-233.86 -489.37,-241.06 -27.45,72.25 -34.56,177.04 -53.93,257.05 -258.33,1066.22 -1019.15,1375.55 -919.69,2009.04 76.72,488.58 96.29,549.43 435.18,871.03 72.77,69.04 286.68,221.74 404.81,194.66z"/>
  <path class="fil0 str0" d="M13978.39 7004.41c853.94,-2.65 1765.62,31.8 2598.15,19.03 -8.52,-66.89 -251.84,-424 -305.45,-490.21l-1537.64 -7.54c-2.72,-96.05 93.93,-203.14 137.53,-300.03 56.63,-125.83 97.11,-202.17 158.02,-317.58l628.64 -1220.85c49.67,-98.74 276.03,-562.57 321.8,-609.36 36.36,24.23 1.76,-14.27 39.3,39.64l204.29 411.57c44.06,91.51 184.01,400.43 228.08,456.2 76.28,-10.26 353.69,-354.28 356.6,-375.92 -20.44,-107.98 -141.67,-312.9 -189.79,-421.26l-403.5 -808.94c-54.44,-105.8 -138.97,-351.43 -216.83,-408.79 -63.59,38.4 -227.05,411.83 -264.61,485.52l-758.79 1509.04c-106.38,203.05 -995.33,1954.96 -995.8,2039.48z"/>
  <path class="fil0 str0" d="M25941.25 18795.45l-0.92 206.55c-69.4,-22.84 -114.74,-120.48 -189.35,-218.07 -150.24,-196.57 -774.89,-1105.03 -864.18,-1167.47 -97.59,-68.22 -441.87,-115.66 -442.98,290.09l-10.91 1560.1c0,301.78 335.28,334.74 422.72,131.08 72.96,-169.89 -14.96,-1167.83 49.07,-1274.87 121.16,53.26 812.62,1221.82 1037.38,1357.81 91.88,55.58 429.4,147.11 431.35,-286.57l6.79 -1560.12c0.37,-389.59 -428.32,-327.91 -433.79,-19.22 -5.74,324.56 -4.65,655.62 -5.18,980.69z"/>
  <path class="fil0 str0" d="M21537.67 19184.98l929.68 -1.61c67.4,151.89 155.34,476.43 291.95,521.92 121.01,40.3 326.41,3.26 317.9,-202.05 -3.24,-78.35 -45.15,-152.92 -69.87,-210.19l-500.47 -1130.1c-116.09,-261.42 -181.27,-596.46 -486.2,-599.91 -171.22,-1.92 -271.54,83.44 -332.86,211.33 -61.81,128.9 -113.06,243.89 -168.51,376.41l-502.55 1128.47c-49.11,107.99 -149.39,278.93 -11.27,386.12 87.99,68.29 268.36,105.08 368.46,-99.59 50.25,-102.75 111.63,-298.76 163.74,-380.8z"/>
  <path class="fil0 str0" d="M13245.06 19182.64l938.47 -4.2c50.07,128.13 99.29,253.13 152.85,368.34 28.33,60.91 56.07,124.34 126.59,148.46 76.08,26.01 179.29,14.83 235.4,-23.14 146.3,-99.01 58.93,-287.26 3.63,-415.24l-494.69 -1120.07c-53.57,-115.63 -107.02,-264.22 -167.94,-375.66 -67.34,-123.24 -166.82,-215.57 -344.34,-204.34 -295.27,18.7 -367.58,373.76 -476.32,598.17 -181.14,373.8 -326.19,763.09 -493.06,1123.35 -62.67,135.31 -141.2,282.12 -7.3,382.48 92.62,69.42 263.47,97.47 362.83,-98.18 60.27,-118.68 103.57,-273.46 163.88,-379.97z"/>
  <path class="fil0 str0" d="M10372.9 18777.3c-0.48,193.48 -1.23,387.07 -2.55,580.52 -1.53,219.62 20.63,360.88 257.97,346.72 337.95,-20.16 183.55,-461.07 230.39,-949.71l983.27 -0.58c18.74,367.91 -80.97,897.35 147.69,944.74 433.81,89.9 332.81,-434.61 334.82,-758.42 2.29,-365.74 13.91,-743.1 7.18,-1107.36 -3.06,-165.8 -77.63,-295.08 -268.23,-274.9 -197.92,20.93 -213.94,157.89 -214.03,348.24l-4.63 498.35 -989.03 2.4 -4.97 -573.32c-0.51,-385.86 -451.98,-366.02 -471.97,-36.53 -18.62,306.95 -5.59,667.55 -5.91,979.85z"/>
  <path class="fil0 str0" d="M20128.99 17926.97c-20.55,62.63 -140.3,162.92 -192.02,218.76l-616.41 670.81c-143.94,151.09 -288.74,318.02 -408.64,444.14 -244.58,257.26 -89.09,416.71 187.05,422.93 238.86,5.4 1559.52,46.49 1665.88,-41.06 85.28,-70.21 59.14,-236.86 -71.37,-262.79 -121.51,-24.12 -1012.77,12.15 -1280.89,-9.83 5.97,-72.76 119.68,-163.03 163.11,-207.62l964.44 -1030.08c68,-78.27 147.47,-146.94 162.1,-243.06 21.07,-138.33 -13.24,-242.31 -127.01,-275.13 -73.85,-21.3 -1494.34,-15.79 -1549.49,3.23 -110.69,38.19 -127.85,190.01 -39.47,258.04 124.96,96.18 821.37,9.13 1142.72,51.66z"/>
  <path class="fil0 str0" d="M15137.05 17924.7c-0.47,273.67 -23.89,1438.74 -7.97,1596.18 23.03,227.82 386.29,277.04 455.71,23.54 50.8,-185.48 -21.55,-596.05 26.42,-770.46l694.76 -2.4c143.88,-0.25 291.7,-12.98 274.67,-174.11 -20.38,-193 -364.76,-139.76 -637.47,-140.14l-331.7 -1.61c-5.01,-117.57 0.53,-233.89 -0.79,-349.8 -2.64,-232.84 -56.65,-183.69 495.75,-183.56 302.6,0.06 701.9,61.36 638.97,-205.03 -37.86,-160.29 -294.01,-113.38 -511.97,-113.6l-798.21 -0.15c-253.99,0.24 -299.3,72.57 -298.17,321.14z"/>
  <path class="fil0 str0" d="M17066.69 18722.88c-0.24,194.49 -31.8,712.55 19.84,851.95 57.65,155.66 452.02,313.2 453.37,-217.03l2.55 -576.25c196.54,-19.82 564.22,-10.61 759.02,-7.46 161.79,1.37 244.07,-53.84 211.84,-232.62 -56.86,-122.54 -375.77,-83.2 -574.67,-83.07l-394.04 -6.86c-0.26,-61.21 -19.07,-480.2 22.86,-518.3 48.51,-38.07 683.77,-16.26 806.58,-15.76 138.97,0.55 291.25,15.4 316.47,-120.95 46.68,-252.6 -332.41,-188.08 -661.15,-188.15l-598.64 -0.43c-315.4,-1.37 -358.21,62.4 -359.49,370.89 -1.03,247.92 -3.49,496.06 -4.54,744.04z"/>
  <path class="fil0 str0" d="M23453.63 18360.07l-4.52 907.04c-0.88,249.27 -28.26,449.79 240.15,449.6 283.61,-0.19 229.49,-292.08 230.58,-540.3l6.18 -1251.71c-0.26,-131.88 9.85,-251.87 -82.77,-316.3 -87.53,-60.87 -232.39,-55.79 -309.4,15.02 -126.45,116.3 -79.68,535.72 -80.22,736.65z"/>
  <path class="fil0 str0" d="M13386.13 18865.67l648.14 -0.45c8.25,-100.21 -116.32,-335.32 -150.64,-421.67l-141.46 -365.36c-28.8,-44.05 -1.93,-28.28 -48.44,-39.38 -54.68,115.62 -108.57,275.99 -154.4,403.28 -34.32,95.35 -157.1,327.14 -153.2,423.58z"/>
  <path class="fil0 str0" d="M21677.95 18866.03l642.99 6.51c0.56,-84.44 -259.12,-743.31 -289.4,-775.3 -35.18,-37.15 2.98,-16.48 -47.5,-30.42 -47.74,86.84 -304.77,726.51 -306.09,799.21z"/>
  <path class="fil0 str0" d="M13814.83 5451.39c77,25.32 295.27,20.67 377.85,3.58 4.32,-70.71 36.59,-290.05 -20.94,-323.97 -31.02,-18.27 -308.81,-9.7 -353.91,0.39l-3 320z"/>
  <path class="fil0 str0" d="M21848.03 3617.98c46.19,7.33 336.32,25.49 370.45,-7.69 38.64,-63.98 26.14,-229.07 13.2,-318.57l-380.14 -2.23 -3.51 328.49z"/>
  <path class="fil0 str0" d="M16458.59 2099.3l364.29 7.47 1.91 -332.85 -246.7 -4.44c-103.81,-0.02 -121.19,-10.9 -123.53,98.48 -1.52,71.33 -0.66,160.42 4.03,231.34z"/>
 </g>
</svg>
